{
  "accessors": [
    {
      "bufferView": 2,
      "componentType": 5126,
      "count": 946,
      "max": [
        1.8468489646911621,
        0.99418199062347412,
        4.4948577880859375
      ],
      "min": [
        -1.9120299816131592,
        -1.6164000034332275,
        -0.03435400128364563
      ],
      "type": "VEC3"
    },
    {
      "bufferView": 2,
      "byteOffset": 11352,
      "componentType": 5126,
      "count": 946,
      "max": [
        1,
        1,
        0.99999904632568359
      ],
      "min": [
        -1,
        -1,
        -1
      ],
      "type": "VEC3"
    },
    {
      "bufferView": 3,
      "componentType": 5126,
      "count": 946,
      "max": [
        0.99985688924789429,
        0.99754750728607178,
        0.99970328807830811,
        1
      ],
      "min": [
        -0.99998527765274048,
        -0.99982881546020508,
        -0.99999958276748657,
        -1
      ],
      "type": "VEC4"
    },
    {
      "bufferView": 1,
      "componentType": 5126,
      "count": 946,
      "max": [
        0.99566197395324707,
        0.91026902198791504
      ],
      "min": [
        0.0041330000385642052,
        0.0041379998438060284
      ],
      "type": "VEC2"
    },
    {
      "bufferView": 0,
      "componentType": 5125,
      "count": 4656,
      "max": [
        945
      ],
      "min": [
        0
      ],
      "type": "SCALAR"
    },
    {
      "bufferView": 2,
      "byteOffset": 22704,
      "componentType": 5126,
      "count": 423,
      "max": [
        1.6226439476013184,
        -0.35231199860572815,
        4.3323001861572266
      ],
      "min": [
        -1.622642993927002,
        -0.88842397928237915,
        0.1868399977684021
      ],
      "type": "VEC3"
    },
    {
      "bufferView": 2,
      "byteOffset": 27780,
      "componentType": 5126,
      "count": 423,
      "max": [
        0.99977439641952515,
        0.99999547004699707,
        0.99971193075180054
      ],
      "min": [
        -0.99977439641952515,
        -0.99999916553497314,
        -0.95139229297637939
      ],
      "type": "VEC3"
    },
    {
      "bufferView": 3,
      "byteOffset": 15136,
      "componentType": 5126,
      "count": 423,
      "max": [
        0.99975639581680298,
        0.99912011623382568,
        0.99890428781509399,
        1
      ],
      "min": [
        -0.99996912479400635,
        -0.99988442659378052,
        -0.99994963407516479,
        -1
      ],
      "type": "VEC4"
    },
    {
      "bufferView": 1,
      "byteOffset": 7568,
      "componentType": 5126,
      "count": 423,
      "max": [
        0.99595201015472412,
        0.81507498025894165
      ],
      "min": [
        0.0040480000898241997,
        0.0040480000898241997
      ],
      "type": "VEC2"
    },
    {
      "bufferView": 0,
      "byteOffset": 18624,
      "componentType": 5125,
      "count": 1914,
      "max": [
        422
      ],
      "min": [
        0
      ],
      "type": "SCALAR"
    },
    {
      "bufferView": 2,
      "byteOffset": 32856,
      "componentType": 5126,
      "count": 3659,
      "max": [
        1.8774600028991699,
        -0.74112999439239502,
        4.1717767715454102
      ],
      "min": [
        -1.9157199859619141,
        -2.5958600044250488,
        0.15282000601291656
      ],
      "type": "VEC3"
    },
    {
      "bufferView": 2,
      "byteOffset": 76764,
      "componentType": 5126,
      "count": 3659,
      "max": [
        0.9999997615814209,
        0.99987226724624634,
        0.99980813264846802
      ],
      "min": [
        -0.9999997615814209,
        -0.99855798482894897,
        -0.9999995231628418
      ],
      "type": "VEC3"
    },
    {
      "bufferView": 3,
      "byteOffset": 21904,
      "componentType": 5126,
      "count": 3659,
      "max": [
        0.99944734573364258,
        0.99967801570892334,
        0.99862557649612427,
        1
      ],
      "min": [
        -0.99944907426834106,
        -0.99832338094711304,
        -0.99764871597290039,
        -1
      ],
      "type": "VEC4"
    },
    {
      "bufferView": 1,
      "byteOffset": 10952,
      "componentType": 5126,
      "count": 3659,
      "max": [
        0.9950370192527771,
        0.88940298557281494
      ],
      "min": [
        0.00496299983933568,
        0.00496299983933568
      ],
      "type": "VEC2"
    },
    {
      "bufferView": 0,
      "byteOffset": 26280,
      "componentType": 5125,
      "count": 17568,
      "max": [
        3658
      ],
      "min": [
        0
      ],
      "type": "SCALAR"
    }
  ],
  "asset": {
    "extras": {
      "author": "Egi (https://sketchfab.com/dzero808)",
      "license": "CC-BY-NC-ND-4.0 (http://creativecommons.org/licenses/by-nc-nd/4.0/)",
      "source": "https://sketchfab.com/models/293fb6a8cafd4eac8256391c04f41668",
      "title": "Anti-Thief Bag"
    },
    "generator": "Sketchfab-3.54.8-rc1",
    "version": "2.0"
  },
  "bufferViews": [
    {
      "buffer": 0,
      "byteLength": 96552,
      "byteOffset": 0,
      "name": "floatBufferViews",
      "target": 34963
    },
    {
      "buffer": 0,
      "byteLength": 40224,
      "byteOffset": 96552,
      "byteStride": 8,
      "name": "floatBufferViews",
      "target": 34962
    },
    {
      "buffer": 0,
      "byteLength": 120672,
      "byteOffset": 136776,
      "byteStride": 12,
      "name": "floatBufferViews",
      "target": 34962
    },
    {
      "buffer": 0,
      "byteLength": 80448,
      "byteOffset": 257448,
      "byteStride": 16,
      "name": "floatBufferViews",
      "target": 34962
    }
  ],
  "buffers": [
    {
      "byteLength": 337896,
      "uri": "bag.bin"
    }
  ],
  "images": [
    {
      "uri": "../textures/bag_textures/material_baseColor.png"
    },
    {
      "uri": "../textures/bag_textures/material_metallicRoughness.png"
    },
    {
      "uri": "../textures/bag_textures/material_normal.png"
    },
    {
      "uri": "../textures/bag_textures/material_1_baseColor.png"
    },
    {
      "uri": "../textures/bag_textures/material_1_metallicRoughness.png"
    },
    {
      "uri": "../textures/bag_textures/material_1_normal.png"
    },
    {
      "uri": "../textures/bag_textures/material_3_baseColor.png"
    },
    {
      "uri": "../textures/bag_textures/material_3_metallicRoughness.png"
    },
    {
      "uri": "../textures/bag_textures/material_3_normal.png"
    }
  ],
  "materials": [
    {
      "doubleSided": true,
      "emissiveFactor": [
        0,
        0,
        0
      ],
      "name": "material_1",
      "normalTexture": {
        "index": 5,
        "scale": 1,
        "texCoord": 0
      },
      "occlusionTexture": {
        "index": 4,
        "strength": 1,
        "texCoord": 0
      },
      "pbrMetallicRoughness": {
        "baseColorFactor": [
          1,
          1,
          1,
          1
        ],
        "baseColorTexture": {
          "index": 3,
          "texCoord": 0
        },
        "metallicFactor": 0.050000000000000003,
        "metallicRoughnessTexture": {
          "index": 4,
          "texCoord": 0
        },
        "roughnessFactor": 1
      }
    },
    {
      "doubleSided": true,
      "emissiveFactor": [
        0,
        0,
        0
      ],
      "name": "material",
      "normalTexture": {
        "index": 2,
        "scale": 1,
        "texCoord": 0
      },
      "occlusionTexture": {
        "index": 1,
        "strength": 1,
        "texCoord": 0
      },
      "pbrMetallicRoughness": {
        "baseColorFactor": [
          1,
          1,
          1,
          1
        ],
        "baseColorTexture": {
          "index": 0,
          "texCoord": 0
        },
        "metallicFactor": 0,
        "metallicRoughnessTexture": {
          "index": 1,
          "texCoord": 0
        },
        "roughnessFactor": 1
      }
    },
    {
      "doubleSided": true,
      "emissiveFactor": [
        0,
        0,
        0
      ],
      "name": "material_3",
      "normalTexture": {
        "index": 8,
        "scale": 1,
        "texCoord": 0
      },
      "occlusionTexture": {
        "index": 7,
        "strength": 1,
        "texCoord": 0
      },
      "pbrMetallicRoughness": {
        "baseColorFactor": [
          1,
          1,
          1,
          1
        ],
        "baseColorTexture": {
          "index": 6,
          "texCoord": 0
        },
        "metallicFactor": 0,
        "metallicRoughnessTexture": {
          "index": 7,
          "texCoord": 0
        },
        "roughnessFactor": 1
      }
    }
  ],
  "meshes": [
    {
      "primitives": [
        {
          "attributes": {
            "NORMAL": 1,
            "POSITION": 0,
            "TANGENT": 2,
            "TEXCOORD_0": 3
          },
          "indices": 4,
          "material": 0,
          "mode": 4
        }
      ]
    },
    {
      "primitives": [
        {
          "attributes": {
            "NORMAL": 6,
            "POSITION": 5,
            "TANGENT": 7,
            "TEXCOORD_0": 8
          },
          "indices": 9,
          "material": 1,
          "mode": 4
        }
      ]
    },
    {
      "primitives": [
        {
          "attributes": {
            "NORMAL": 11,
            "POSITION": 10,
            "TANGENT": 12,
            "TEXCOORD_0": 13
          },
          "indices": 14,
          "material": 2,
          "mode": 4
        }
      ]
    }
  ],
  "nodes": [
    {
      "children": [
        1
      ],
      "name": "RootNode (gltf orientation matrix)",
      "rotation": [
        -0.70710678118654746,
        -0,
        -0,
        0.70710678118654757
      ]
    },
    {
      "children": [
        2
      ],
      "name": "RootNode (model correction matrix)"
    },
    {
      "children": [
        3,
        4,
        5
      ],
      "name": "Anti-Thief Bag.obj.cleaner.materialmerger.gles"
    },
    {
      "mesh": 0,
      "name": ""
    },
    {
      "mesh": 1,
      "name": ""
    },
    {
      "mesh": 2,
      "name": ""
    }
  ],
  "samplers": [
    {
      "magFilter": 9729,
      "minFilter": 9987,
      "wrapS": 10497,
      "wrapT": 10497
    }
  ],
  "scene": 0,
  "scenes": [
    {
      "name": "OSG_Scene",
      "nodes": [
        0
      ]
    }
  ],
  "textures": [
    {
      "sampler": 0,
      "source": 0
    },
    {
      "sampler": 0,
      "source": 1
    },
    {
      "sampler": 0,
      "source": 2
    },
    {
      "sampler": 0,
      "source": 3
    },
    {
      "sampler": 0,
      "source": 4
    },
    {
      "sampler": 0,
      "source": 5
    },
    {
      "sampler": 0,
      "source": 6
    },
    {
      "sampler": 0,
      "source": 7
    },
    {
      "sampler": 0,
      "source": 8
    }
  ]
}

