{
  "accessors": [
    {
      "bufferView": 2,
      "componentType": 5126,
      "count": 22430,
      "max": [
        52.862125396728516,
        15.185500144958496,
        53.10760498046875
      ],
      "min": [
        -5.7950592041015625,
        -7.7069993019104004,
        -36.949905395507812
      ],
      "type": "VEC3"
    },
    {
      "bufferView": 2,
      "byteOffset": 269160,
      "componentType": 5126,
      "count": 22430,
      "max": [
        0.99999833106994629,
        0.99998956918716431,
        0.99983614683151245
      ],
      "min": [
        -0.99996048212051392,
        -0.99998778104782104,
        -0.99999552965164185
      ],
      "type": "VEC3"
    },
    {
      "bufferView": 3,
      "componentType": 5126,
      "count": 22430,
      "max": [
        0.9999886155128479,
        0.99982017278671265,
        0.99972498416900635,
        1
      ],
      "min": [
        -0.99998933076858521,
        -0.99974542856216431,
        -0.99977695941925049,
        -1
      ],
      "type": "VEC4"
    },
    {
      "bufferView": 1,
      "componentType": 5126,
      "count": 22430,
      "max": [
        0.9538000226020813,
        0.63969999551773071
      ],
      "min": [
        -0.17779999971389771,
        -0.38850000500679016
      ],
      "type": "VEC2"
    },
    {
      "bufferView": 0,
      "componentType": 5125,
      "count": 123258,
      "max": [
        22429
      ],
      "min": [
        0
      ],
      "type": "SCALAR"
    }
  ],
  "asset": {
    "extras": {
      "author": "jpark1 (https://sketchfab.com/jpark1)",
      "license": "CC-BY-4.0 (http://creativecommons.org/licenses/by/4.0/)",
      "source": "https://sketchfab.com/3d-models/stickman-3d-model-f9aa17880f0d4ae3b87dda3bbba5cd30",
      "title": "Stickman 3D model"
    },
    "generator": "Sketchfab-5.33.0",
    "version": "2.0"
  },
  "bufferViews": [
    {
      "buffer": 0,
      "byteLength": 493032,
      "byteOffset": 0,
      "name": "floatBufferViews",
      "target": 34963
    },
    {
      "buffer": 0,
      "byteLength": 179440,
      "byteOffset": 493032,
      "byteStride": 8,
      "name": "floatBufferViews",
      "target": 34962
    },
    {
      "buffer": 0,
      "byteLength": 538320,
      "byteOffset": 672472,
      "byteStride": 12,
      "name": "floatBufferViews",
      "target": 34962
    },
    {
      "buffer": 0,
      "byteLength": 358880,
      "byteOffset": 1210792,
      "byteStride": 16,
      "name": "floatBufferViews",
      "target": 34962
    }
  ],
  "buffers": [
    {
      "byteLength": 1569672,
      "uri": "scene.bin"
    }
  ],
  "materials": [
    {
      "doubleSided": true,
      "name": "defaultMat",
      "pbrMetallicRoughness": {
        "baseColorFactor": [
          1,
          1,
          1,
          1
        ],
        "metallicFactor": 0,
        "roughnessFactor": 0.59999999999999998
      }
    }
  ],
  "meshes": [
    {
      "primitives": [
        {
          "attributes": {
            "NORMAL": 1,
            "POSITION": 0,
            "TANGENT": 2,
            "TEXCOORD_0": 3
          },
          "indices": 4,
          "material": 0,
          "mode": 4
        }
      ]
    }
  ],
  "nodes": [
    {
      "children": [
        1
      ],
      "name": "RootNode (gltf orientation matrix)",
      "rotation": [
        -0.70710678118654746,
        -0,
        -0,
        0.70710678118654757
      ]
    },
    {
      "children": [
        2
      ],
      "name": "RootNode (model correction matrix)"
    },
    {
      "children": [
        3
      ],
      "name": "stickman.OBJ.cleaner.materialmerger.gles"
    },
    {
      "mesh": 0,
      "name": ""
    }
  ],
  "scene": 0,
  "scenes": [
    {
      "name": "OSG_Scene",
      "nodes": [
        0
      ]
    }
  ]
}

